<?xml version="1.0" encoding="utf-8" ?>
<svg baseProfile="full" height="180" version="1.1" width="453.20000000000005" xmlns="http://www.w3.org/2000/svg" xmlns:ev="http://www.w3.org/2001/xml-events" xmlns:xlink="http://www.w3.org/1999/xlink"><defs><style type="text/css"><![CDATA[
.background {fill: #eeeeee}
.style_0 {fill: #ffeeee; stroke: black; stroke-width: 1pt}
.style_1 {fill: lightgreen; stroke: black; stroke-width: 1pt}
.style_2 {fill: lightblue; stroke: black; stroke-width: 1pt}
.text {font-family: monospace; font-size: 8pt}]]></style></defs><rect class="background" height="100%" width="100%" x="0" y="0" /><g class="background" /><g class="style_0"><rect height="32" width="72.2" x="371.00000000000006" y="10" /><rect height="32" width="72.2" x="371.00000000000006" y="42" /><rect height="32" width="72.2" x="371.00000000000006" y="106" /><rect height="32" width="72.2" x="371.00000000000006" y="138" /><rect height="32" width="72.2" x="298.80000000000007" y="10" /><rect height="32" width="72.2" x="298.80000000000007" y="42" /><rect height="32" width="72.2" x="298.80000000000007" y="74" /><rect height="32" width="72.2" x="298.80000000000007" y="106" /><rect height="32" width="72.2" x="298.80000000000007" y="138" /><rect height="32" width="72.2" x="226.60000000000005" y="10" /><rect height="32" width="72.2" x="226.60000000000005" y="42" /><rect height="32" width="72.2" x="226.60000000000005" y="74" /><rect height="32" width="72.2" x="226.60000000000005" y="138" /><rect height="32" width="72.2" x="154.40000000000003" y="10" /><rect height="32" width="72.2" x="154.40000000000003" y="42" /><rect height="32" width="72.2" x="154.40000000000003" y="74" /><rect height="32" width="72.2" x="154.40000000000003" y="106" /><rect height="32" width="72.2" x="154.40000000000003" y="138" /><rect height="32" width="72.2" x="82.20000000000005" y="74" /><rect height="32" width="72.2" x="82.20000000000005" y="106" /><rect height="32" width="72.2" x="82.20000000000005" y="138" /><rect height="32" width="72.2" x="10.000000000000057" y="10" /><rect height="32" width="72.2" x="10.000000000000057" y="42" /><rect height="32" width="72.2" x="10.000000000000057" y="74" /><rect height="32" width="72.2" x="10.000000000000057" y="106" /></g><g class="style_1"><rect height="32" width="72.2" x="371.00000000000006" y="74" /><rect height="32" width="72.2" x="82.20000000000005" y="42" /></g><g class="style_2"><rect height="32" width="72.2" x="226.60000000000005" y="106" /><rect height="32" width="72.2" x="82.20000000000005" y="10" /><rect height="32" width="72.2" x="10.000000000000057" y="138" /></g><g class="text"><text x="375.00000000000006" y="22">[x:0, y:0]</text><text x="375.00000000000006" y="54">[x:0, y:1]</text><text x="375.00000000000006" y="86">Ozzy</text><text x="375.00000000000006" y="118">[x:0, y:3]</text><text x="375.00000000000006" y="150">[x:0, y:4]</text><text x="302.80000000000007" y="22">[x:1, y:0]</text><text x="302.80000000000007" y="54">[x:1, y:1]</text><text x="302.80000000000007" y="86">[x:1, y:2]</text><text x="302.80000000000007" y="118">[x:1, y:3]</text><text x="302.80000000000007" y="150">[x:1, y:4]</text><text x="230.60000000000005" y="22">[x:2, y:0]</text><text x="230.60000000000005" y="54">[x:2, y:1]</text><text x="230.60000000000005" y="86">[x:2, y:2]</text><text x="230.60000000000005" y="118">Madame</text><text x="230.60000000000005" y="130">Susana</text><text x="230.60000000000005" y="150">[x:2, y:4]</text><text x="158.40000000000003" y="22">[x:3, y:0]</text><text x="158.40000000000003" y="54">[x:3, y:1]</text><text x="158.40000000000003" y="86">[x:3, y:2]</text><text x="158.40000000000003" y="118">[x:3, y:3]</text><text x="158.40000000000003" y="150">[x:3, y:4]</text><text x="86.20000000000005" y="22">Sir</text><text x="86.20000000000005" y="34">Tom</text><text x="86.20000000000005" y="54">Axel</text><text x="86.20000000000005" y="86">[x:4, y:2]</text><text x="86.20000000000005" y="118">[x:4, y:3]</text><text x="86.20000000000005" y="150">[x:4, y:4]</text><text x="14.000000000000057" y="22">[x:5, y:0]</text><text x="14.000000000000057" y="54">[x:5, y:1]</text><text x="14.000000000000057" y="86">[x:5, y:2]</text><text x="14.000000000000057" y="118">[x:5, y:3]</text><text x="14.000000000000057" y="150">Sir</text><text x="14.000000000000057" y="162">James</text></g></svg>