<?xml version="1.0" encoding="utf-8" ?>
<svg baseProfile="full" height="180" version="1.1" width="299.12" xmlns="http://www.w3.org/2000/svg" xmlns:ev="http://www.w3.org/2001/xml-events" xmlns:xlink="http://www.w3.org/1999/xlink"><defs><style type="text/css"><![CDATA[
.background {fill: #eeeeee}
.style_0 {fill: #ffffaa; stroke: black; stroke-width: 1pt}
.style_1 {fill: lightgreen; stroke: black; stroke-width: 1pt}
.style_2 {fill: lightblue; stroke: black; stroke-width: 1pt}
.text {font-family: monospace; font-size: 8pt}]]></style></defs><rect class="background" height="100%" width="100%" x="0" y="0" /><g class="background" /><g class="style_0"><rect height="32" width="46.519999999999996" x="242.60000000000002" y="10" /><rect height="32" width="46.519999999999996" x="242.60000000000002" y="42" /><rect height="32" width="46.519999999999996" x="242.60000000000002" y="106" /><rect height="32" width="46.519999999999996" x="242.60000000000002" y="138" /><rect height="32" width="46.519999999999996" x="196.08000000000004" y="10" /><rect height="32" width="46.519999999999996" x="196.08000000000004" y="42" /><rect height="32" width="46.519999999999996" x="196.08000000000004" y="74" /><rect height="32" width="46.519999999999996" x="196.08000000000004" y="106" /><rect height="32" width="46.519999999999996" x="196.08000000000004" y="138" /><rect height="32" width="46.519999999999996" x="149.56000000000003" y="10" /><rect height="32" width="46.519999999999996" x="149.56000000000003" y="42" /><rect height="32" width="46.519999999999996" x="149.56000000000003" y="74" /><rect height="32" width="46.519999999999996" x="149.56000000000003" y="138" /><rect height="32" width="46.519999999999996" x="103.04000000000002" y="10" /><rect height="32" width="46.519999999999996" x="103.04000000000002" y="42" /><rect height="32" width="46.519999999999996" x="103.04000000000002" y="74" /><rect height="32" width="46.519999999999996" x="103.04000000000002" y="106" /><rect height="32" width="46.519999999999996" x="103.04000000000002" y="138" /><rect height="32" width="46.519999999999996" x="56.52000000000004" y="74" /><rect height="32" width="46.519999999999996" x="56.52000000000004" y="106" /><rect height="32" width="46.519999999999996" x="56.52000000000004" y="138" /><rect height="32" width="46.519999999999996" x="10.000000000000057" y="10" /><rect height="32" width="46.519999999999996" x="10.000000000000057" y="42" /><rect height="32" width="46.519999999999996" x="10.000000000000057" y="74" /><rect height="32" width="46.519999999999996" x="10.000000000000057" y="106" /></g><g class="style_1"><rect height="32" width="46.519999999999996" x="242.60000000000002" y="74" /><rect height="32" width="46.519999999999996" x="56.52000000000004" y="42" /></g><g class="style_2"><rect height="32" width="46.519999999999996" x="149.56000000000003" y="106" /><rect height="32" width="46.519999999999996" x="56.52000000000004" y="10" /><rect height="32" width="46.519999999999996" x="10.000000000000057" y="138" /></g><g class="text"><text x="246.60000000000002" y="22" /><text x="246.60000000000002" y="54" /><text x="246.60000000000002" y="86">Ozzy</text><text x="246.60000000000002" y="118" /><text x="246.60000000000002" y="150" /><text x="200.08000000000004" y="22" /><text x="200.08000000000004" y="54" /><text x="200.08000000000004" y="86" /><text x="200.08000000000004" y="118" /><text x="200.08000000000004" y="150" /><text x="153.56000000000003" y="22" /><text x="153.56000000000003" y="54" /><text x="153.56000000000003" y="86" /><text x="153.56000000000003" y="118">Madame</text><text x="153.56000000000003" y="130">Susana</text><text x="153.56000000000003" y="150" /><text x="107.04000000000002" y="22" /><text x="107.04000000000002" y="54" /><text x="107.04000000000002" y="86" /><text x="107.04000000000002" y="118" /><text x="107.04000000000002" y="150" /><text x="60.52000000000004" y="22">Sir</text><text x="60.52000000000004" y="34">Tom</text><text x="60.52000000000004" y="54">Axel</text><text x="60.52000000000004" y="86" /><text x="60.52000000000004" y="118" /><text x="60.52000000000004" y="150" /><text x="14.000000000000057" y="22" /><text x="14.000000000000057" y="54" /><text x="14.000000000000057" y="86" /><text x="14.000000000000057" y="118" /><text x="14.000000000000057" y="150">Sir</text><text x="14.000000000000057" y="162">James</text></g></svg>