<?xml version="1.0" encoding="utf-8" ?>
<svg baseProfile="full" height="310" version="1.1" width="217.34" xmlns="http://www.w3.org/2000/svg" xmlns:ev="http://www.w3.org/2001/xml-events" xmlns:xlink="http://www.w3.org/1999/xlink"><defs><style type="text/css"><![CDATA[
.background {fill: #eeeeee}
.style_0 {fill: lightgray; stroke: black; stroke-width: 1pt}
.style_1 {fill: lightyellow; stroke: black; stroke-width: 1pt}
.style_2 {fill: #ffff88; stroke: black; stroke-width: 1pt}
.style_3 {fill: #ffffff; stroke: black; stroke-width: 1pt}
.style_4 {fill: #8888ff; stroke: black; stroke-width: 1pt}
.style_5 {fill: #ff8888; stroke: black; stroke-width: 1pt}
.text {font-family: monospace; font-size: 8pt}]]></style></defs><rect class="background" height="100%" width="100%" x="0" y="0" /><g class="background" /><g class="style_0"><rect height="20" width="65.78" x="10.0" y="40" /><rect height="20" width="65.78" x="75.78" y="40" /><rect height="20" width="65.78" x="141.56" y="40" /></g><g class="style_1"><rect height="20" width="65.78" x="10.0" y="60" /><rect height="20" width="65.78" x="10.0" y="80" /><rect height="20" width="65.78" x="10.0" y="100" /><rect height="20" width="65.78" x="10.0" y="120" /><rect height="20" width="65.78" x="10.0" y="140" /><rect height="20" width="65.78" x="10.0" y="160" /><rect height="20" width="65.78" x="10.0" y="180" /><rect height="20" width="65.78" x="10.0" y="200" /><rect height="20" width="65.78" x="10.0" y="220" /><rect height="20" width="65.78" x="10.0" y="240" /><rect height="20" width="65.78" x="10.0" y="260" /><rect height="20" width="65.78" x="10.0" y="280" /></g><g class="style_2"><rect height="20" width="65.78" x="10.0" y="10" /><rect height="20" width="65.78" x="75.78" y="60" /></g><g class="style_3"><rect height="20" width="65.78" x="75.78" y="80" /><rect height="20" width="65.78" x="141.56" y="100" /><rect height="20" width="65.78" x="75.78" y="120" /><rect height="20" width="65.78" x="75.78" y="140" /><rect height="20" width="65.78" x="75.78" y="160" /><rect height="20" width="65.78" x="141.56" y="160" /><rect height="20" width="65.78" x="75.78" y="180" /><rect height="20" width="65.78" x="75.78" y="220" /><rect height="20" width="65.78" x="141.56" y="220" /><rect height="20" width="65.78" x="75.78" y="260" /><rect height="20" width="65.78" x="75.78" y="280" /></g><g class="style_4"><rect height="20" width="65.78" x="75.78" y="10" /><rect height="20" width="65.78" x="75.78" y="100" /><rect height="20" width="65.78" x="75.78" y="200" /><rect height="20" width="65.78" x="75.78" y="240" /></g><g class="style_5"><rect height="20" width="65.78" x="141.56" y="180" /></g><g class="text"><text x="14.0" y="22">too low</text><text x="79.78" y="22">too high</text><text x="14.0" y="52">Month</text><text x="79.78" y="52">Cost</text><text x="145.56" y="52">Notes</text><text x="14.0" y="72">January</text><text x="79.78" y="72">$12.33</text><text x="14.0" y="92">February</text><text x="79.78" y="92">$33.1</text><text x="14.0" y="112">March</text><text x="79.78" y="112">$54.3</text><text x="145.56" y="112">Delayed.</text><text x="14.0" y="132">April</text><text x="79.78" y="132">$22.12</text><text x="14.0" y="152">May</text><text x="79.78" y="152">$31.41</text><text x="14.0" y="172">June</text><text x="79.78" y="172">$41.36</text><text x="145.56" y="172">Delayed.</text><text x="14.0" y="192">July</text><text x="79.78" y="192">$22.23</text><text x="145.56" y="192">Lost!</text><text x="14.0" y="212">August</text><text x="79.78" y="212">$82.1</text><text x="14.0" y="232">September</text><text x="79.78" y="232">$20.01</text><text x="145.56" y="232">Replaced.</text><text x="14.0" y="252">October</text><text x="79.78" y="252">$55.2</text><text x="14.0" y="272">November</text><text x="79.78" y="272">$34.23</text><text x="14.0" y="292">December</text><text x="79.78" y="292">$33.52</text></g></svg>