<?xml version="1.0" encoding="utf-8" ?>
<svg baseProfile="full" height="180" version="1.1" width="299.12" xmlns="http://www.w3.org/2000/svg" xmlns:ev="http://www.w3.org/2001/xml-events" xmlns:xlink="http://www.w3.org/1999/xlink"><defs><style type="text/css"><![CDATA[
.background {fill: #eeeeee}
.style_0 {fill: #ffeeee; stroke: black; stroke-width: 1pt}
.style_1 {fill: lightgreen; stroke: black; stroke-width: 1pt}
.style_2 {fill: lightblue; stroke: black; stroke-width: 1pt}
.text {font-family: monospace; font-size: 8pt}]]></style></defs><rect class="background" height="100%" width="100%" x="0" y="0" /><g class="background" /><g class="style_0"><rect height="32" width="46.519999999999996" x="10.0" y="138" /><rect height="32" width="46.519999999999996" x="10.0" y="106" /><rect height="32" width="46.519999999999996" x="10.0" y="42" /><rect height="32" width="46.519999999999996" x="10.0" y="10" /><rect height="32" width="46.519999999999996" x="56.519999999999996" y="138" /><rect height="32" width="46.519999999999996" x="56.519999999999996" y="106" /><rect height="32" width="46.519999999999996" x="56.519999999999996" y="74" /><rect height="32" width="46.519999999999996" x="56.519999999999996" y="42" /><rect height="32" width="46.519999999999996" x="56.519999999999996" y="10" /><rect height="32" width="46.519999999999996" x="103.03999999999999" y="138" /><rect height="32" width="46.519999999999996" x="103.03999999999999" y="106" /><rect height="32" width="46.519999999999996" x="103.03999999999999" y="74" /><rect height="32" width="46.519999999999996" x="103.03999999999999" y="10" /><rect height="32" width="46.519999999999996" x="149.56" y="138" /><rect height="32" width="46.519999999999996" x="149.56" y="106" /><rect height="32" width="46.519999999999996" x="149.56" y="74" /><rect height="32" width="46.519999999999996" x="149.56" y="42" /><rect height="32" width="46.519999999999996" x="149.56" y="10" /><rect height="32" width="46.519999999999996" x="196.07999999999998" y="74" /><rect height="32" width="46.519999999999996" x="196.07999999999998" y="42" /><rect height="32" width="46.519999999999996" x="196.07999999999998" y="10" /><rect height="32" width="46.519999999999996" x="242.59999999999997" y="138" /><rect height="32" width="46.519999999999996" x="242.59999999999997" y="106" /><rect height="32" width="46.519999999999996" x="242.59999999999997" y="74" /><rect height="32" width="46.519999999999996" x="242.59999999999997" y="42" /></g><g class="style_1"><rect height="32" width="46.519999999999996" x="10.0" y="74" /><rect height="32" width="46.519999999999996" x="196.07999999999998" y="106" /></g><g class="style_2"><rect height="32" width="46.519999999999996" x="103.03999999999999" y="42" /><rect height="32" width="46.519999999999996" x="196.07999999999998" y="138" /><rect height="32" width="46.519999999999996" x="242.59999999999997" y="10" /></g><g class="text"><text x="14.0" y="150">x:0</text><text x="14.0" y="162">y:0</text><text x="14.0" y="118">x:0</text><text x="14.0" y="130">y:1</text><text x="14.0" y="86">Ozzy</text><text x="14.0" y="54">x:0</text><text x="14.0" y="66">y:3</text><text x="14.0" y="22">x:0</text><text x="14.0" y="34">y:4</text><text x="60.519999999999996" y="150">x:1</text><text x="60.519999999999996" y="162">y:0</text><text x="60.519999999999996" y="118">x:1</text><text x="60.519999999999996" y="130">y:1</text><text x="60.519999999999996" y="86">x:1</text><text x="60.519999999999996" y="98">y:2</text><text x="60.519999999999996" y="54">x:1</text><text x="60.519999999999996" y="66">y:3</text><text x="60.519999999999996" y="22">x:1</text><text x="60.519999999999996" y="34">y:4</text><text x="107.03999999999999" y="150">x:2</text><text x="107.03999999999999" y="162">y:0</text><text x="107.03999999999999" y="118">x:2</text><text x="107.03999999999999" y="130">y:1</text><text x="107.03999999999999" y="86">x:2</text><text x="107.03999999999999" y="98">y:2</text><text x="107.03999999999999" y="54">Madame</text><text x="107.03999999999999" y="66">Susana</text><text x="107.03999999999999" y="22">x:2</text><text x="107.03999999999999" y="34">y:4</text><text x="153.56" y="150">x:3</text><text x="153.56" y="162">y:0</text><text x="153.56" y="118">x:3</text><text x="153.56" y="130">y:1</text><text x="153.56" y="86">x:3</text><text x="153.56" y="98">y:2</text><text x="153.56" y="54">x:3</text><text x="153.56" y="66">y:3</text><text x="153.56" y="22">x:3</text><text x="153.56" y="34">y:4</text><text x="200.07999999999998" y="150">Sir</text><text x="200.07999999999998" y="162">Tom</text><text x="200.07999999999998" y="118">Axel</text><text x="200.07999999999998" y="86">x:4</text><text x="200.07999999999998" y="98">y:2</text><text x="200.07999999999998" y="54">x:4</text><text x="200.07999999999998" y="66">y:3</text><text x="200.07999999999998" y="22">x:4</text><text x="200.07999999999998" y="34">y:4</text><text x="246.59999999999997" y="150">x:5</text><text x="246.59999999999997" y="162">y:0</text><text x="246.59999999999997" y="118">x:5</text><text x="246.59999999999997" y="130">y:1</text><text x="246.59999999999997" y="86">x:5</text><text x="246.59999999999997" y="98">y:2</text><text x="246.59999999999997" y="54">x:5</text><text x="246.59999999999997" y="66">y:3</text><text x="246.59999999999997" y="22">Sir</text><text x="246.59999999999997" y="34">James</text></g></svg>