<?xml version="1.0" encoding="utf-8" ?>
<svg baseProfile="full" height="100" version="1.1" width="63.26" xmlns="http://www.w3.org/2000/svg" xmlns:ev="http://www.w3.org/2001/xml-events" xmlns:xlink="http://www.w3.org/1999/xlink"><defs><style type="text/css"><![CDATA[
.background {fill: #eeeeee}
.style_0 {fill: #ffffff; stroke: black; stroke-width: 1pt}
.text {font-family: monospace; font-size: 8pt}]]></style></defs><rect class="background" height="100%" width="100%" x="0" y="0" /><g class="background" /><g class="style_0"><rect height="20" width="14.42" x="10.0" y="10" /><rect height="20" width="14.42" x="10.0" y="30" /><rect height="20" width="14.42" x="10.0" y="50" /><rect height="20" width="14.42" x="24.42" y="10" /><rect height="20" width="14.42" x="24.42" y="30" /><rect height="20" width="14.42" x="38.84" y="10" /><rect height="20" width="14.42" x="38.84" y="30" /><rect height="20" width="14.42" x="38.84" y="50" /><rect height="20" width="14.42" x="38.84" y="70" /></g><g class="text"><text x="14.0" y="22">1</text><text x="14.0" y="42">2</text><text x="14.0" y="62">3</text><text x="28.42" y="22">4</text><text x="28.42" y="42">5</text><text x="42.84" y="22">6</text><text x="42.84" y="42">7</text><text x="42.84" y="62">8</text><text x="42.84" y="82">9</text></g></svg>